<svg xmlns="http://www.w3.org/2000/svg" version="1.1" xmlns:xlink="http://www.w3.org/1999/xlink" xmlns:svgjs="http://svgjs.dev/svgjs" width="1000" height="1000" viewBox="0 0 1000 1000"><rect width="1000" height="1000" fill="#ffffff"></rect><g transform="matrix(0.7,0,0,0.7,149.57575757575756,282.1265587044535)"><svg viewBox="0 0 396 247" data-background-color="#ffffff" preserveAspectRatio="xMidYMid meet" height="623" width="1000" xmlns="http://www.w3.org/2000/svg" xmlns:xlink="http://www.w3.org/1999/xlink"><g id="tight-bounds" transform="matrix(1,0,0,1,0.2400000000000091,-0.09999999999999432)"><svg viewBox="0 0 395.52 247.2" height="247.2" width="395.52"><g><svg></svg></g><g><svg viewBox="0 0 395.52 247.2" height="247.2" width="395.52"><g transform="matrix(1,0,0,1,75.54432,93.61671200358583)"><svg viewBox="0 0 244.43135999999998 59.966575992828325" height="59.966575992828325" width="244.43135999999998"><g><svg viewBox="0 0 244.43135999999998 59.966575992828325" height="59.966575992828325" width="244.43135999999998"><g><svg viewBox="0 0 244.43135999999998 59.966575992828325" height="59.966575992828325" width="244.43135999999998"><g><svg viewBox="0 0 244.43135999999998 59.966575992828325" height="59.966575992828325" width="244.43135999999998"><g><svg viewBox="0 0 244.43135999999998 59.966575992828325" height="59.966575992828325" width="244.43135999999998"><g><svg viewBox="0 0 244.43135999999998 59.966575992828325" height="59.966575992828325" width="244.43135999999998"><g transform="matrix(1,0,0,1,0,0)"><svg width="244.43135999999998" viewBox="1.0700000524520874 -39.599998474121094 163.38999938964844 40.09000015258789" height="59.966575992828325" data-palette-color="#233565"><path d="M6.27 0L6.27-21.66 1.07-21.66 1.51-24.63 6.3-25.88 6.3-27Q6.3-29.59 7.08-31.87 7.86-34.16 9.34-35.88 10.82-37.6 12.99-38.6 15.16-39.6 17.94-39.6L17.94-39.6Q19.02-39.6 20.2-39.44 21.39-39.28 22.49-38.94L22.49-38.94 21.48-34.72 21-34.47Q20.24-34.89 19.35-35.13 18.46-35.38 17.48-35.38L17.48-35.38Q16.06-35.38 15.06-34.81 14.06-34.25 13.43-33.26 12.79-32.28 12.5-30.92 12.21-29.57 12.21-27.98L12.21-27.98 12.21-25.88 20.8-25.88 19.75-21.66 12.21-21.66 12.21 0 6.27 0ZM26.71 0L26.71-25.88 32.64-25.88 32.64 0 26.71 0ZM29.66-30.98L29.66-30.98Q28.88-30.98 28.23-31.24 27.59-31.49 27.11-31.93 26.63-32.37 26.38-32.98 26.12-33.59 26.12-34.3L26.12-34.3Q26.12-35.03 26.4-35.66 26.68-36.28 27.18-36.76 27.68-37.23 28.35-37.5 29.03-37.77 29.81-37.77L29.81-37.77Q30.56-37.77 31.2-37.5 31.83-37.23 32.3-36.78 32.76-36.33 33.03-35.71 33.3-35.08 33.3-34.38L33.3-34.38Q33.3-33.64 33.02-33.02 32.74-32.4 32.24-31.95 31.74-31.49 31.08-31.24 30.42-30.98 29.66-30.98ZM40.84 0L40.84-25.88 45.62-25.88 46.45-21.46Q47.31-22.24 48.38-23.11 49.46-23.97 50.73-24.69 52-25.42 53.4-25.89 54.8-26.37 56.32-26.37L56.32-26.37Q58.1-26.37 59.55-25.7 61.01-25.02 62.03-23.82 63.06-22.61 63.62-20.92 64.18-19.24 64.18-17.24L64.18-17.24 64.18 0 58.25 0 58.25-16.53Q58.25-17.85 57.88-18.85 57.51-19.85 56.87-20.51 56.22-21.17 55.33-21.51 54.44-21.85 53.41-21.85L53.41-21.85Q51.61-21.85 50-20.92 48.38-20 46.75-18.48L46.75-18.48 46.75 0 40.84 0ZM86.3-3.81L86.3-3.81Q85.66-3.27 84.77-2.53 83.88-1.78 82.79-1.11 81.71-0.44 80.42 0.02 79.14 0.49 77.73 0.49L77.73 0.49Q76.29 0.49 75.05-0.04 73.82-0.56 72.91-1.5 71.99-2.44 71.46-3.75 70.94-5.05 70.94-6.64L70.94-6.64Q70.94-8.3 71.61-9.89 72.28-11.47 73.86-12.72 75.43-13.96 78.02-14.73 80.61-15.5 84.42-15.5L84.42-15.5 86.2-15.5 86.2-17.5Q86.2-18.58 85.83-19.43 85.47-20.29 84.81-20.9 84.15-21.51 83.23-21.83 82.32-22.14 81.19-22.14L81.19-22.14Q80.31-22.14 79.31-21.94 78.31-21.73 77.34-21.36 76.36-21 75.43-20.5 74.5-20 73.77-19.41L73.77-19.41 73.33-19.65 72.21-23.75Q75.16-25.29 77.7-25.83 80.24-26.37 82.46-26.37L82.46-26.37Q84.76-26.37 86.55-25.9 88.35-25.44 89.59-24.48 90.84-23.51 91.48-22.03 92.13-20.56 92.13-18.53L92.13-18.53 92.13-6.57Q92.13-6.2 92.19-5.76 92.25-5.32 92.44-4.93 92.62-4.54 92.97-4.27 93.33-4 93.91-4L93.91-4Q94.26-4 94.74-4.1 95.23-4.2 95.72-4.42L95.72-4.42 95.72-1.49Q94.4-0.59 93.1-0.05 91.79 0.49 90.54 0.49L90.54 0.49Q89.57 0.49 88.86 0.12 88.15-0.24 87.66-0.84 87.18-1.44 86.85-2.21 86.52-2.98 86.3-3.81ZM86.2-6.96L86.2-12.62 84.66-12.62Q82.12-12.62 80.57-12.27 79.02-11.91 78.17-11.29 77.31-10.67 77.03-9.85 76.75-9.03 76.75-8.08L76.75-8.08Q76.75-7.08 77.04-6.32 77.34-5.57 77.84-5.05 78.34-4.54 79.02-4.27 79.7-4 80.49-4L80.49-4Q81.07-4 81.71-4.14 82.34-4.27 83.04-4.61 83.73-4.96 84.51-5.52 85.3-6.08 86.2-6.96L86.2-6.96ZM100.99 0L100.99-25.88 105.78-25.88 106.61-21.46Q107.46-22.24 108.53-23.11 109.61-23.97 110.88-24.69 112.15-25.42 113.55-25.89 114.96-26.37 116.47-26.37L116.47-26.37Q118.25-26.37 119.7-25.7 121.16-25.02 122.18-23.82 123.21-22.61 123.77-20.92 124.33-19.24 124.33-17.24L124.33-17.24 124.33 0 118.4 0 118.4-16.53Q118.4-17.85 118.03-18.85 117.67-19.85 117.02-20.51 116.37-21.17 115.48-21.51 114.59-21.85 113.56-21.85L113.56-21.85Q111.76-21.85 110.15-20.92 108.53-20 106.9-18.48L106.9-18.48 106.9 0 100.99 0ZM151.18-5.32L151.18-2.37Q149.45-0.98 147.33-0.24 145.2 0.49 142.76 0.49L142.76 0.49Q140.03 0.49 137.83-0.43 135.63-1.34 134.09-2.97 132.56-4.59 131.73-6.85 130.9-9.11 130.9-11.82L130.9-11.82Q130.9-15.01 132.02-17.69 133.14-20.36 135.08-22.29 137.02-24.22 139.66-25.29 142.3-26.37 145.32-26.37L145.32-26.37Q145.98-26.37 146.74-26.31 147.5-26.25 148.29-26.12 149.08-26 149.85-25.79 150.62-25.59 151.28-25.29L151.28-25.29 150.23-20.75 149.72-20.51Q149.28-20.83 148.68-21.13 148.08-21.44 147.4-21.66 146.72-21.88 145.98-22.01 145.25-22.14 144.54-22.14L144.54-22.14Q142.98-22.14 141.63-21.53 140.27-20.92 139.26-19.75 138.24-18.58 137.66-16.88 137.07-15.19 137.07-13.04L137.07-13.04Q137.07-10.79 137.71-9.11 138.34-7.42 139.47-6.29 140.59-5.15 142.13-4.58 143.66-4 145.47-4L145.47-4Q146.59-4 148.03-4.27 149.47-4.54 151.18-5.32L151.18-5.32ZM157.87 0L157.87-25.88 163.8-25.88 163.8 0 157.87 0ZM160.82-30.98L160.82-30.98Q160.04-30.98 159.4-31.24 158.75-31.49 158.27-31.93 157.8-32.37 157.54-32.98 157.28-33.59 157.28-34.3L157.28-34.3Q157.28-35.03 157.57-35.66 157.85-36.28 158.35-36.76 158.85-37.23 159.52-37.5 160.19-37.77 160.97-37.77L160.97-37.77Q161.73-37.77 162.36-37.5 163-37.23 163.46-36.78 163.93-36.33 164.19-35.71 164.46-35.08 164.46-34.38L164.46-34.38Q164.46-33.64 164.18-33.02 163.9-32.4 163.4-31.95 162.9-31.49 162.24-31.24 161.58-30.98 160.82-30.98Z" opacity="1" transform="matrix(1,0,0,1,0,0)" fill="#233565" class="undefined-text-0" data-fill-palette-color="primary" id="text-0"></path></svg></g></svg></g></svg></g></svg></g></svg></g></svg></g></svg></g><g><path d="M0 123.6c0-68.262 55.338-123.6 123.6-123.6 55.35 0 102.203 36.383 117.947 86.538l-2.838 0c-15.648-48.639-61.269-83.834-115.109-83.834-66.769 0-120.896 54.127-120.896 120.896 0 66.769 54.127 120.896 120.896 120.896 53.841 0 99.461-35.196 115.109-83.834l2.838 0c-15.744 50.155-62.597 86.538-117.947 86.538-68.262 0-123.6-55.338-123.6-123.6z" fill="#233565" stroke="transparent" data-fill-palette-color="tertiary"></path></g></svg></g><defs></defs></svg><rect width="395.52" height="247.2" fill="none" stroke="none" visibility="hidden"></rect></g></svg></g></svg>